<svg xmlns="http://www.w3.org/2000/svg" viewBox="0 0 32 32" fill="none">
  <defs>
    <linearGradient id="gold" x1="4" y1="4" x2="28" y2="28" gradientUnits="userSpaceOnUse">
      <stop stop-color="#e8cc7a"/>
      <stop offset="1" stop-color="#a67c2e"/>
    </linearGradient>
  </defs>
  <!-- walnut background -->
  <rect width="32" height="32" rx="7" fill="#1f1812"/>
  <!-- gold ring -->
  <rect x="1.25" y="1.25" width="29.5" height="29.5" rx="6" stroke="url(#gold)" stroke-width="1.5"/>
  <!-- sofa back -->
  <path fill="#faf8f5" d="M8 13.5h16a1 1 0 0 1 1 1v2.5H7v-2.5a1 1 0 0 1 1-1Z"/>
  <!-- sofa seat -->
  <rect x="7" y="17" width="18" height="3.5" rx="0.75" fill="#faf8f5"/>
  <!-- gold accent line -->
  <path stroke="url(#gold)" stroke-width="1.1" stroke-linecap="round" d="M8.5 16.5h15"/>
  <!-- arms -->
  <rect x="6" y="14" width="2.75" height="6.5" rx="1" fill="#faf8f5"/>
  <rect x="23.25" y="14" width="2.75" height="6.5" rx="1" fill="#faf8f5"/>
  <!-- legs -->
  <rect x="9" y="20.5" width="1.5" height="2" rx="0.4" fill="url(#gold)"/>
  <rect x="21.5" y="20.5" width="1.5" height="2" rx="0.4" fill="url(#gold)"/>
</svg>
